<?xml version="1.0" encoding="UTF-8" standalone="no"?>
<!-- Created with Inkscape (http://www.inkscape.org/) -->

<svg
   xmlns:dc="http://purl.org/dc/elements/1.1/"
   xmlns:cc="http://creativecommons.org/ns#"
   xmlns:rdf="http://www.w3.org/1999/02/22-rdf-syntax-ns#"
   xmlns:svg="http://www.w3.org/2000/svg"
   xmlns="http://www.w3.org/2000/svg"
   xmlns:sodipodi="http://sodipodi.sourceforge.net/DTD/sodipodi-0.dtd"
   xmlns:inkscape="http://www.inkscape.org/namespaces/inkscape"
   width="600"
   height="400"
   viewBox="0 0 158.75 105.83333"
   version="1.1"
   id="svg8"
   inkscape:version="0.92.4 (unknown)"
   sodipodi:docname="dessica-flag.svgz">
  <title
     id="title2386">Redesigned Flag of Minnesota</title>
  <defs
     id="defs2" />
  <sodipodi:namedview
     id="base"
     pagecolor="#ffffff"
     bordercolor="#666666"
     borderopacity="1.0"
     inkscape:pageopacity="0.0"
     inkscape:pageshadow="2"
     inkscape:zoom="0.5"
     inkscape:cx="104.56501"
     inkscape:cy="139.81975"
     inkscape:document-units="px"
     inkscape:current-layer="g1266"
     showgrid="false"
     units="px"
     inkscape:window-width="1260"
     inkscape:window-height="896"
     inkscape:window-x="114"
     inkscape:window-y="83"
     inkscape:window-maximized="0"
     objecttolerance="1"
     fit-margin-top="0"
     fit-margin-left="0"
     fit-margin-right="0"
     fit-margin-bottom="0"
     inkscape:snap-global="false" />
  <metadata
     id="metadata5">
    <rdf:RDF>
      <cc:Work
         rdf:about="">
        <dc:format>image/svg+xml</dc:format>
        <dc:type
           rdf:resource="http://purl.org/dc/dcmitype/StillImage" />
        <dc:title>Redesigned Flag of Minnesota</dc:title>
        <dc:date>December 4, 2017</dc:date>
        <dc:creator>
          <cc:Agent>
            <dc:title>Adam A. Smith</dc:title>
          </cc:Agent>
        </dc:creator>
      </cc:Work>
    </rdf:RDF>
  </metadata>
  <g
     inkscape:label="Layer 1"
     inkscape:groupmode="layer"
     id="layer1"
     transform="translate(0,-191.16668)">
    <rect
       style="color:#000000;clip-rule:nonzero;display:inline;overflow:visible;visibility:visible;opacity:1;isolation:auto;mix-blend-mode:normal;color-interpolation:sRGB;color-interpolation-filters:linearRGB;solid-color:#000000;solid-opacity:1;vector-effect:none;fill:#784421;fill-opacity:1;fill-rule:nonzero;stroke:none;stroke-width:0.5291667;stroke-linecap:butt;stroke-linejoin:miter;stroke-miterlimit:4;stroke-dasharray:none;stroke-dashoffset:0;stroke-opacity:1;marker:none;color-rendering:auto;image-rendering:auto;shape-rendering:auto;text-rendering:auto;enable-background:accumulate"
       id="rect26"
       width="158.75"
       height="105.83334"
       x="1.2500001e-06"
       y="191.16669" />
    <path
       id="rect207-3-3"
       style="color:#000000;clip-rule:nonzero;display:inline;overflow:visible;visibility:visible;opacity:1;isolation:auto;mix-blend-mode:normal;color-interpolation:sRGB;color-interpolation-filters:linearRGB;solid-color:#000000;solid-opacity:1;vector-effect:none;fill:#ffffff;fill-opacity:1;fill-rule:nonzero;stroke:none;stroke-width:0.30551454;stroke-linecap:butt;stroke-linejoin:miter;stroke-miterlimit:4;stroke-dasharray:none;stroke-dashoffset:0;stroke-opacity:1;marker:none;color-rendering:auto;image-rendering:auto;shape-rendering:auto;text-rendering:auto;enable-background:accumulate"
       d="M 0,191.16668 V 297.00001 H 15.874999 L 31.75,288.18057 15.874999,279.36112 31.75,270.54168 15.874999,261.72223 31.75,252.90279 15.874999,244.08334 31.75,235.2639 15.874999,226.44446 31.75,217.62501 15.874999,208.80557 31.75,199.98612 15.874999,191.16668 Z"
       inkscape:connector-curvature="0"
       sodipodi:nodetypes="cccccccccccccccc" />
    <g
       id="g1266"
       transform="translate(4.0548268,-5.0000489)">
      <path
         style="clip-rule:evenodd;fill:#ffffff;fill-rule:evenodd;stroke-width:1.32291665;image-rendering:optimizeQuality;shape-rendering:geometricPrecision;text-rendering:geometricPrecision;stroke:none;stroke-miterlimit:4;stroke-dasharray:none"
         d="m 114.51724,217.20197 c -3.6106,2.36976 -7.81096,3.76322 -12.09757,4.19637 -0.73153,10.60098 -6.750309,19.94178 -13.582387,27.72113 -5.937499,6.71411 -12.79385,12.68554 -19.870621,18.07372 -0.598221,-1.60929 -0.93834,-3.30165 -1.15491,-5.0013 -0.906608,0.69731 -1.590668,1.70148 -1.76189,2.84705 -1.16186,-1.49199 -2.348076,-3.28372 -2.347848,-5.22442 0.627168,-0.90173 0.95169,1.23474 1.92641,0.36609 1.248244,-1.07003 -0.509429,-1.66709 -0.954933,-2.09123 -1.613627,-0.98944 -3.287203,1.20991 -2.662347,2.75408 0.345369,1.86064 1.279051,3.54862 2.360569,5.0776 -1.087757,-0.63763 -2.41992,-0.74438 -3.615245,-0.3716 1.236616,1.24184 2.733702,2.56754 3.419052,4.11973 0.07587,0.69848 -0.786446,-0.39473 -1.273623,-0.0669 -0.967783,-0.0797 -1.00865,1.54431 -1.792821,0.68564 -0.844963,-0.41871 -1.802669,0.3076 -2.062845,0.95835 -0.801327,-0.85863 -2.299974,-0.2622 -2.567846,0.69476 -0.723977,-0.84531 -2.100718,-0.19983 -2.43679,0.47377 -1.018034,-1.17015 -2.884044,0.34528 -2.432522,1.36363 -1.153546,-1.82413 -4.267299,-1.2284 -4.674182,0.88897 -0.61407,-1.15376 -2.376349,-0.38075 -2.053857,0.87161 -0.126895,1.29288 1.674437,1.56527 2.115392,0.59402 0.534178,1.91028 3.274818,2.33332 4.451326,0.92315 0.57798,1.26607 2.292594,0.3203 2.464664,-0.41528 0.651023,1.17021 2.359934,0.33054 2.440465,-0.6984 0.692975,1.04237 2.410692,0.52328 2.683161,-0.48028 0.896869,0.9051 2.16274,-0.10965 2.369187,-1.12015 0.150418,1.38868 2.204542,0.92872 2.423325,-0.24931 0.132306,-0.72298 1.119185,0.81014 1.745909,-0.005 0.892683,-1.23204 0.711566,1.1177 0.894837,1.75006 0.193865,0.83236 -0.43914,3.24205 0.661238,1.49563 0.614558,-0.76871 1.06027,-1.66323 1.362726,-2.59752 1.240934,1.54416 2.513504,3.40323 2.523487,5.43944 -0.627379,0.9014 -0.95127,-1.23359 -1.92691,-0.36669 -1.248212,1.07273 0.514092,1.66905 0.955487,2.09187 1.61347,0.988 3.287365,-1.21092 2.662368,-2.75498 -0.418357,-2.01549 -1.488616,-4.17103 -2.844904,-5.55464 1.527227,0.57985 3.193881,0.81461 4.815136,0.56815 -1.261985,-0.77397 -2.447393,-1.69624 -3.383693,-2.85212 0.941535,0.024 2.045876,-0.99503 3.030355,-1.39165 18.506367,-10.07575 33.39299,-27.02236 40.02743,-47.13182 0.74367,-2.23077 1.36306,-4.50004 1.92745,-6.78225 -0.58206,0.40815 -1.16646,0.81276 -1.76223,1.20069 z"
         id="_48844656-9"
         inkscape:connector-curvature="0" />
      <path
         style="clip-rule:evenodd;fill:#ffffff;fill-rule:evenodd;stroke-width:3.06822157;image-rendering:optimizeQuality;shape-rendering:geometricPrecision;text-rendering:geometricPrecision"
         d="M 244.80664 74.964844 C 246.93977 83.590519 249.28108 92.168353 252.0918 100.59961 C 267.13943 146.21006 293.42829 187.50474 327.15625 221.47656 C 334.41515 214.45275 341.43019 207.19324 348.13281 199.67969 C 322.47457 170.36777 299.94015 135.22506 297.18945 95.363281 C 280.98809 93.726179 265.11316 88.46048 251.4668 79.503906 C 249.21507 78.037714 247.00655 76.507458 244.80664 74.964844 z M 372.46094 225.00195 C 365.8313 231.57891 358.92703 237.88036 351.76758 243.87695 C 367.83694 257.09174 385.1362 268.80324 403.37695 278.73438 C 407.09782 280.23341 411.2715 284.08485 414.83008 283.99414 C 411.29127 288.36282 406.81074 291.8482 402.04102 294.77344 C 408.16861 295.7049 414.46806 294.81851 420.24023 292.62695 C 415.1141 297.85635 411.06948 306.00349 409.48828 313.62109 C 407.12611 319.45691 413.45263 327.76734 419.55078 324.0332 C 421.21903 322.43514 427.87975 320.18137 423.16211 316.12695 C 419.47465 312.85048 418.25011 320.92054 415.87891 317.51367 C 415.91666 309.81772 420.72589 302.79127 425.41602 296.95508 C 426.55917 300.48625 428.24366 303.86612 430.56641 306.77148 C 434.72532 313.37213 432.33371 304.26507 433.06641 301.11914 C 433.75912 298.72912 433.07336 289.84738 436.44727 294.50391 C 438.81601 297.58475 442.54684 291.79091 443.04688 294.52344 C 443.8738 298.97583 451.63656 300.71535 452.20508 295.4668 C 452.98532 299.28601 457.77041 303.12007 461.16016 299.69922 C 462.18996 303.4922 468.68164 305.45529 471.30078 301.51562 C 471.60515 305.40453 478.06484 308.57714 480.52539 304.1543 C 481.17573 306.93444 487.65535 310.50976 489.83984 305.72461 C 494.2865 311.05439 504.64515 309.45433 506.66406 302.23438 C 508.33068 305.90524 515.13974 304.87671 514.66016 299.99023 C 515.87902 295.25691 509.21738 292.33464 506.89648 296.69531 C 505.35867 288.69265 493.59031 286.44159 489.23047 293.33594 C 490.937 289.48706 483.88478 283.75903 480.03711 288.18164 C 478.76689 285.63575 473.56244 283.19575 470.82617 286.39062 C 469.81371 282.77377 464.14974 280.52041 461.12109 283.76562 C 460.13774 281.3061 456.51781 278.56005 453.32422 280.14258 C 450.36043 283.38795 450.20658 277.24955 446.54883 277.55078 C 444.70752 276.31174 441.44751 280.44461 441.73438 277.80469 C 444.32467 271.93814 449.98436 266.92794 454.6582 262.23438 C 450.14042 260.82544 445.10536 261.22873 440.99414 263.63867 C 445.08178 257.85985 448.61068 251.47961 449.91602 244.44727 C 452.27769 238.61103 445.95224 230.29945 439.85352 234.03906 C 438.1697 235.64211 431.52638 237.8972 436.24414 241.94141 C 439.92812 245.22449 441.15498 237.15048 443.52539 240.55859 C 443.52626 247.89352 439.04167 254.66567 434.65039 260.30469 C 434.00326 255.97497 431.41875 252.17847 427.99219 249.54297 C 427.17366 255.96684 425.88794 262.36491 423.62695 268.44727 C 405.95126 254.98917 388.64713 240.5594 372.46094 225.00195 z "
         id="_48844656-9-6"
         transform="matrix(0.26458333,0,0,0.26458333,-4.0548268,196.16673)" />
    </g>
  </g>
</svg>
