<?xml version="1.0" encoding="UTF-8" standalone="no"?>
<!-- Created with Inkscape (http://www.inkscape.org/) -->

<svg
   xmlns:dc="http://purl.org/dc/elements/1.1/"
   xmlns:cc="http://creativecommons.org/ns#"
   xmlns:rdf="http://www.w3.org/1999/02/22-rdf-syntax-ns#"
   xmlns:svg="http://www.w3.org/2000/svg"
   xmlns="http://www.w3.org/2000/svg"
   xmlns:sodipodi="http://sodipodi.sourceforge.net/DTD/sodipodi-0.dtd"
   xmlns:inkscape="http://www.inkscape.org/namespaces/inkscape"
   width="600"
   height="400"
   viewBox="0 0 158.75 105.83333"
   version="1.1"
   id="svg8"
   inkscape:version="0.92.4 (5da689c313, 2019-01-14)"
   sodipodi:docname="desicca-flag-full.svg">
  <title
     id="title2386">Redesigned Flag of Minnesota</title>
  <defs
     id="defs2" />
  <sodipodi:namedview
     id="base"
     pagecolor="#ffffff"
     bordercolor="#666666"
     borderopacity="1.0"
     inkscape:pageopacity="0.0"
     inkscape:pageshadow="2"
     inkscape:zoom="0.5"
     inkscape:cx="-156.43499"
     inkscape:cy="139.81975"
     inkscape:document-units="px"
     inkscape:current-layer="g1266"
     showgrid="false"
     units="px"
     inkscape:window-width="1260"
     inkscape:window-height="896"
     inkscape:window-x="114"
     inkscape:window-y="83"
     inkscape:window-maximized="0"
     objecttolerance="1"
     fit-margin-top="0"
     fit-margin-left="0"
     fit-margin-right="0"
     fit-margin-bottom="0"
     inkscape:snap-global="false" />
  <metadata
     id="metadata5">
    <rdf:RDF>
      <cc:Work
         rdf:about="">
        <dc:format>image/svg+xml</dc:format>
        <dc:type
           rdf:resource="http://purl.org/dc/dcmitype/StillImage" />
        <dc:title>Redesigned Flag of Minnesota</dc:title>
        <dc:date>December 4, 2017</dc:date>
        <dc:creator>
          <cc:Agent>
            <dc:title>Adam A. Smith</dc:title>
          </cc:Agent>
        </dc:creator>
      </cc:Work>
    </rdf:RDF>
  </metadata>
  <g
     inkscape:label="Layer 1"
     inkscape:groupmode="layer"
     id="layer1"
     transform="translate(0,-191.16668)">
    <rect
       style="color:#000000;clip-rule:nonzero;display:inline;overflow:visible;visibility:visible;opacity:1;isolation:auto;mix-blend-mode:normal;color-interpolation:sRGB;color-interpolation-filters:linearRGB;solid-color:#000000;solid-opacity:1;vector-effect:none;fill:#784421;fill-opacity:1;fill-rule:nonzero;stroke:none;stroke-width:0.5291667;stroke-linecap:butt;stroke-linejoin:miter;stroke-miterlimit:4;stroke-dasharray:none;stroke-dashoffset:0;stroke-opacity:1;marker:none;color-rendering:auto;image-rendering:auto;shape-rendering:auto;text-rendering:auto;enable-background:accumulate"
       id="rect26"
       width="158.75"
       height="105.83334"
       x="1.2500001e-06"
       y="191.16669" />
    <path
       id="rect207-3-3"
       style="color:#000000;clip-rule:nonzero;display:inline;overflow:visible;visibility:visible;opacity:1;isolation:auto;mix-blend-mode:normal;color-interpolation:sRGB;color-interpolation-filters:linearRGB;solid-color:#000000;solid-opacity:1;vector-effect:none;fill:#ffffff;fill-opacity:1;fill-rule:nonzero;stroke:none;stroke-width:0.30551454;stroke-linecap:butt;stroke-linejoin:miter;stroke-miterlimit:4;stroke-dasharray:none;stroke-dashoffset:0;stroke-opacity:1;marker:none;color-rendering:auto;image-rendering:auto;shape-rendering:auto;text-rendering:auto;enable-background:accumulate"
       d="M 0,191.16668 V 297.00001 H 15.874999 L 31.75,288.18057 15.874999,279.36112 31.75,270.54168 15.874999,261.72223 31.75,252.90279 15.874999,244.08334 31.75,235.2639 15.874999,226.44446 31.75,217.62501 15.874999,208.80557 31.75,199.98612 15.874999,191.16668 Z"
       inkscape:connector-curvature="0"
       sodipodi:nodetypes="cccccccccccccccc" />
    <g
       id="g1266"
       transform="translate(4.0548268,-5.0000489)">
      <path
         style="clip-rule:evenodd;fill:#ffffff;fill-rule:evenodd;stroke:none;stroke-width:1.32291663;stroke-miterlimit:4;stroke-dasharray:none;image-rendering:optimizeQuality;shape-rendering:geometricPrecision;text-rendering:geometricPrecision"
         d="m 114.51724,217.20197 c -3.6106,2.36976 -7.81096,3.76322 -12.09757,4.19637 -0.73153,10.60098 -6.750309,19.94178 -13.582387,27.72113 -5.937499,6.71411 -12.79385,12.68554 -19.870621,18.07372 -0.598221,-1.60929 -0.93834,-3.30165 -1.15491,-5.0013 -0.906608,0.69731 -1.590668,1.70148 -1.76189,2.84705 -1.16186,-1.49199 -2.348076,-3.28372 -2.347848,-5.22442 0.627168,-0.90173 0.95169,1.23474 1.92641,0.36609 1.248244,-1.07003 -0.509429,-1.66709 -0.954933,-2.09123 -1.613627,-0.98944 -3.287203,1.20991 -2.662347,2.75408 0.345369,1.86064 1.279051,3.54862 2.360569,5.0776 -1.087757,-0.63763 -2.41992,-0.74438 -3.615245,-0.3716 1.236616,1.24184 2.733702,2.56754 3.419052,4.11973 0.07587,0.69848 -0.786446,-0.39473 -1.273623,-0.0669 -0.967783,-0.0797 -1.00865,1.54431 -1.792821,0.68564 -0.844963,-0.41871 -1.802669,0.3076 -2.062845,0.95835 -0.801327,-0.85863 -2.299974,-0.2622 -2.567846,0.69476 -0.723977,-0.84531 -2.100718,-0.19983 -2.43679,0.47377 -1.018034,-1.17015 -2.884044,0.34528 -2.432522,1.36363 -1.153546,-1.82413 -4.267299,-1.2284 -4.674182,0.88897 -0.61407,-1.15376 -2.376349,-0.38075 -2.053857,0.87161 -0.126895,1.29288 1.674437,1.56527 2.115392,0.59402 0.534178,1.91028 3.274818,2.33332 4.451326,0.92315 0.57798,1.26607 2.292594,0.3203 2.464664,-0.41528 0.651023,1.17021 2.359934,0.33054 2.440465,-0.6984 0.692975,1.04237 2.410692,0.52328 2.683161,-0.48028 0.896869,0.9051 2.16274,-0.10965 2.369187,-1.12015 0.150418,1.38868 2.204542,0.92872 2.423325,-0.24931 0.132306,-0.72298 1.119185,0.81014 1.745909,-0.005 0.892683,-1.23204 0.711566,1.1177 0.894837,1.75006 0.193865,0.83236 -0.43914,3.24205 0.661238,1.49563 0.614558,-0.76871 1.06027,-1.66323 1.362726,-2.59752 1.240934,1.54416 2.513504,3.40323 2.523487,5.43944 -0.627379,0.9014 -0.95127,-1.23359 -1.92691,-0.36669 -1.248212,1.07273 0.514092,1.66905 0.955487,2.09187 1.61347,0.988 3.287365,-1.21092 2.662368,-2.75498 -0.418357,-2.01549 -1.488616,-4.17103 -2.844904,-5.55464 1.527227,0.57985 3.193881,0.81461 4.815136,0.56815 -1.261985,-0.77397 -2.447393,-1.69624 -3.383693,-2.85212 0.941535,0.024 2.045876,-0.99503 3.030355,-1.39165 18.506367,-10.07575 33.39299,-27.02236 40.02743,-47.13182 0.74367,-2.23077 1.36306,-4.50004 1.92745,-6.78225 -0.58206,0.40815 -1.16646,0.81276 -1.76223,1.20069 z"
         id="_48844656-9"
         inkscape:connector-curvature="0" />
      <path
         style="clip-rule:evenodd;fill:#ffffff;fill-rule:evenodd;stroke-width:3.06822157;image-rendering:optimizeQuality;shape-rendering:geometricPrecision;text-rendering:geometricPrecision"
         d="m 244.80664,74.964844 c 2.13313,8.625675 4.47444,17.203509 7.28516,25.634766 15.04763,45.61045 41.33649,86.90513 75.06445,120.87695 7.2589,-7.02381 14.27394,-14.28332 20.97656,-21.79687 C 322.47457,170.36777 299.94015,135.22506 297.18945,95.363281 280.98809,93.726179 265.11316,88.46048 251.4668,79.503906 c -2.25173,-1.466192 -4.46025,-2.996448 -6.66016,-4.539062 z m 127.6543,150.037106 c -6.62964,6.57696 -13.53391,12.87841 -20.69336,18.875 16.06936,13.21479 33.36862,24.92629 51.60937,34.85743 3.72087,1.49903 7.89455,5.35047 11.45313,5.25976 -3.53881,4.36868 -8.01934,7.85406 -12.78906,10.7793 6.12759,0.93146 12.42704,0.0451 18.19921,-2.14649 -5.12613,5.2294 -9.17075,13.37654 -10.75195,20.99414 -2.36217,5.83582 3.96435,14.14625 10.0625,10.41211 1.66825,-1.59806 8.32897,-3.85183 3.61133,-7.90625 -3.68746,-3.27647 -4.912,4.79359 -7.2832,1.38672 0.0377,-7.69595 4.84698,-14.7224 9.53711,-20.55859 1.14315,3.53117 2.82764,6.91104 5.15039,9.8164 4.15891,6.60065 1.7673,-2.50641 2.5,-5.65234 0.69271,-2.39002 0.007,-11.27176 3.38086,-6.61523 2.36874,3.08084 6.09957,-2.713 6.59961,0.0195 0.82692,4.45239 8.58968,6.19191 9.1582,0.94336 0.78024,3.81921 5.56533,7.65327 8.95508,4.23242 1.0298,3.79298 7.52148,5.75607 10.14062,1.8164 0.30437,3.88891 6.76406,7.06152 9.22461,2.63868 0.65034,2.78014 7.12996,6.35546 9.31445,1.57031 4.44666,5.32978 14.80531,3.72972 16.82422,-3.49023 1.66662,3.67086 8.47568,2.64233 7.9961,-2.24415 1.21886,-4.73332 -5.44278,-7.65559 -7.76368,-3.29492 -1.53781,-8.00266 -13.30617,-10.25372 -17.66601,-3.35937 1.70653,-3.84888 -5.34569,-9.57691 -9.19336,-5.1543 -1.27022,-2.54589 -6.47467,-4.98589 -9.21094,-1.79102 -1.01246,-3.61685 -6.67643,-5.87021 -9.70508,-2.625 -0.98335,-2.45952 -4.60328,-5.20557 -7.79687,-3.62304 -2.96379,3.24537 -3.11764,-2.89303 -6.77539,-2.5918 -1.84131,-1.23904 -5.10132,2.89383 -4.81445,0.25391 2.59029,-5.86655 8.24998,-10.87675 12.92382,-15.57031 -4.51778,-1.40894 -9.55284,-1.00565 -13.66406,1.40429 4.08764,-5.77882 7.61654,-12.15906 8.92188,-19.1914 2.36167,-5.83624 -3.96378,-14.14782 -10.0625,-10.40821 -1.68382,1.60305 -8.32714,3.85814 -3.60938,7.90235 3.68398,3.28308 4.91084,-4.79093 7.28125,-1.38282 8.7e-4,7.33493 -4.48372,14.10708 -8.875,19.7461 -0.64713,-4.32972 -3.23164,-8.12622 -6.6582,-10.76172 -0.81853,6.42387 -2.10425,12.82194 -4.36524,18.9043 -17.67569,-13.4581 -34.97982,-27.88787 -51.16601,-43.44532 z"
         id="_48844656-9-6"
         transform="matrix(0.26458333,0,0,0.26458333,-4.0548268,196.16673)"
         inkscape:connector-curvature="0" />
    </g>
  </g>
</svg>
