<?xml version="1.0" encoding="UTF-8" standalone="no"?>
<svg
   xmlns:dc="http://purl.org/dc/elements/1.1/"
   xmlns:cc="http://creativecommons.org/ns#"
   xmlns:rdf="http://www.w3.org/1999/02/22-rdf-syntax-ns#"
   xmlns:svg="http://www.w3.org/2000/svg"
   xmlns="http://www.w3.org/2000/svg"
   id="svg8"
   version="1.1"
   viewBox="0 0 158.75 105.83334"
   height="400"
   width="600">
  <defs
     id="defs2" />
  <metadata
     id="metadata5">
    <rdf:RDF>
      <cc:Work
         rdf:about="">
        <dc:format>image/svg+xml</dc:format>
        <dc:type
           rdf:resource="http://purl.org/dc/dcmitype/StillImage" />
        <dc:title />
      </cc:Work>
    </rdf:RDF>
  </metadata>
  <g
     transform="translate(0,-191.16666)"
     id="layer1">
    <rect
       y="191.16666"
       x="2.4999999e-06"
       height="105.83334"
       width="158.75"
       id="rect18"
       style="color:#000000;clip-rule:nonzero;display:inline;overflow:visible;visibility:visible;opacity:1;isolation:auto;mix-blend-mode:normal;color-interpolation:sRGB;color-interpolation-filters:linearRGB;solid-color:#000000;solid-opacity:1;vector-effect:none;fill:#000000;fill-opacity:1;fill-rule:evenodd;stroke:none;stroke-width:0.26458335px;stroke-linecap:butt;stroke-linejoin:miter;stroke-miterlimit:4;stroke-dasharray:none;stroke-dashoffset:0;stroke-opacity:1;marker:none;marker-start:none;marker-end:none;color-rendering:auto;image-rendering:auto;shape-rendering:auto;text-rendering:auto;enable-background:accumulate" />
    <rect
       y="191.16666"
       x="2.4999999e-06"
       height="105.83334"
       width="52.916668"
       id="rect18-3"
       style="color:#000000;clip-rule:nonzero;display:inline;overflow:visible;visibility:visible;opacity:1;isolation:auto;mix-blend-mode:normal;color-interpolation:sRGB;color-interpolation-filters:linearRGB;solid-color:#000000;solid-opacity:1;vector-effect:none;fill:#001860;fill-opacity:1;fill-rule:evenodd;stroke:none;stroke-width:0.26458335px;stroke-linecap:butt;stroke-linejoin:miter;stroke-miterlimit:4;stroke-dasharray:none;stroke-dashoffset:0;stroke-opacity:1;marker:none;marker-start:none;marker-end:none;color-rendering:auto;image-rendering:auto;shape-rendering:auto;text-rendering:auto;enable-background:accumulate" />
    <rect
       y="191.16666"
       x="105.83334"
       height="105.83334"
       width="52.916668"
       id="rect18-3-6"
       style="color:#000000;clip-rule:nonzero;display:inline;overflow:visible;visibility:visible;opacity:1;isolation:auto;mix-blend-mode:normal;color-interpolation:sRGB;color-interpolation-filters:linearRGB;solid-color:#000000;solid-opacity:1;vector-effect:none;fill:#001860;fill-opacity:1;fill-rule:evenodd;stroke:none;stroke-width:0.26458335px;stroke-linecap:butt;stroke-linejoin:miter;stroke-miterlimit:4;stroke-dasharray:none;stroke-dashoffset:0;stroke-opacity:1;marker:none;marker-start:none;marker-end:none;color-rendering:auto;image-rendering:auto;shape-rendering:auto;text-rendering:auto;enable-background:accumulate" />
    <g
       id="g1333">
      <path
         style="color:#000000;clip-rule:nonzero;display:inline;overflow:visible;visibility:visible;opacity:1;isolation:auto;mix-blend-mode:normal;color-interpolation:sRGB;color-interpolation-filters:linearRGB;solid-color:#000000;solid-opacity:1;vector-effect:none;fill:#ffffff;fill-opacity:1;fill-rule:evenodd;stroke:none;stroke-width:0.08571154px;stroke-linecap:butt;stroke-linejoin:miter;stroke-miterlimit:4;stroke-dasharray:none;stroke-dashoffset:0;stroke-opacity:1;marker:none;marker-start:none;marker-end:none;color-rendering:auto;image-rendering:auto;shape-rendering:auto;text-rendering:auto;enable-background:accumulate"
         d="m 79.375003,213.08348 c 0.331045,0 0.391439,16.41086 0.697285,16.53755 0.305845,0.12669 11.952785,-11.43484 12.186869,-11.20076 0.234084,0.23408 -11.327444,11.88102 -11.200759,12.18687 0.126686,0.30585 16.537551,0.36624 16.537551,0.69729 0,0.33104 -16.410866,0.39143 -16.537551,0.69728 h -3.366792 c -0.126685,-0.30585 -16.53755,-0.36624 -16.53755,-0.69728 0,-0.33105 16.410865,-0.39144 16.53755,-0.69729 0.126686,-0.30585 -11.434842,-11.95279 -11.200758,-12.18687 0.234084,-0.23408 11.881023,11.32745 12.186869,11.20076 0.305845,-0.12669 0.366241,-16.53755 0.697286,-16.53755 z"
         id="path10" />
      <path
         style="fill:#ffffff;stroke-width:0.99999988"
         d="m 79.777378,230.09829 c -2.457837,2.23565 -4.372163,5.37232 -5.744942,8.74037 -0.82707,3.11506 -2.951183,0.85524 -4.314649,-0.0226 -1.039605,-1.73312 -2.543364,0.45708 -3.323484,1.61407 -0.864073,1.7966 -1.892065,3.8435 -3.566855,3.78133 -2.171799,2.84932 -4.758828,5.18414 -7.396173,7.21983 -0.837051,0.5689 -2.086934,1.40491 -2.560722,1.83771 3.754359,-1.81348 7.298606,-4.49891 10.160905,-8.17256 2.076098,0.66537 3.05795,-3.02409 4.250543,-4.71773 1.683409,-3.15395 3.014001,0.5041 4.666576,1.20994 0.411032,1.30763 -1.912969,1.93731 -2.759113,2.21103 -1.655583,2.64125 -3.589185,5.01456 -5.547033,7.30752 -1.774629,1.71662 -4.094295,1.02118 -6.095579,1.85787 -0.544935,0.015 -3.479841,1.34141 -2.166717,1.03915 1.803916,-0.61903 3.720001,-1.30374 5.548318,-0.95442 -0.961049,1.03895 -2.908278,0.93025 -4.203752,1.68538 -0.739525,0.22128 -2.52289,1.42048 -0.777234,0.61759 0.95451,-0.22856 3.631285,-1.50915 3.641213,-0.15424 -0.895279,0.69824 -1.739635,2.21336 -0.114816,0.72771 2.650303,-2.2451 4.597394,-5.6054 7.319946,-7.73927 1.637186,-0.65569 2.063357,-3.77322 3.712243,-3.65997 2.543941,-1.09459 3.502608,-4.59212 4.997357,-7.11701 1.243184,-1.90325 2.371928,-4.87187 4.213914,-5.55882 1.391078,1.7981 1.825932,3.96508 3.199572,5.79228 0.845444,1.18031 1.67015,4.17264 3.318168,2.88398 1.320914,-0.46783 1.858584,1.67831 2.798912,2.45773 1.772782,2.22818 3.549698,4.45844 5.554175,6.35776 0.897017,2.44603 2.980204,3.58041 4.640125,5.0382 0.696796,0.53996 2.085114,1.28905 0.632699,0.13447 -0.854447,-0.48147 -1.812049,-1.54945 -0.1029,-1.32961 0.921485,-0.0993 4.399595,0.88125 1.885405,-0.054 -1.27972,-0.58609 -2.745898,-0.39191 -4.046445,-0.66696 -1.270432,-1.2613 1.819585,-0.56899 2.541075,-0.5893 1.72768,0.22546 3.50106,1.02011 5.01442,1.73418 -1.9122,-1.77208 -4.44219,-1.94676 -6.718923,-2.60867 -1.415571,-0.7359 -2.464484,-2.4202 -2.966436,-4.19589 -0.481141,-1.69063 -0.236453,2.00459 0.244948,2.41498 0.349278,1.77728 -1.509181,-1.62168 -1.056935,-2.61618 0.247683,-1.05906 1.549002,-3.48486 1.177224,-3.08816 -1.352901,-0.27443 -1.988494,3.9351 -3.367568,2.36733 -0.894037,-0.41141 -1.589492,-2.36618 -0.05327,-1.59377 0.598809,2.07072 0.0908,-2.94839 0.628435,-1.58561 -0.573946,-0.74255 0.219319,-3.10138 -0.934627,-1.32693 -0.479777,0.78706 -1.954284,3.52433 -1.710412,1.36825 1.05532,-1.14675 2.693504,-4.6476 3.521851,-1.63542 0.682692,2.529 3.265001,0.91508 4.024688,3.37195 2.254955,2.9236 4.853625,5.51574 7.937945,6.94279 -0.88392,-0.9623 -2.425,-1.84818 -3.43158,-3.00668 -1.93533,-1.81985 -3.594657,-4.05799 -5.178099,-6.34591 -1.851285,0.66273 -2.78185,-1.39744 -3.624473,-3.05353 -1.207502,-0.96225 -2.519856,1.92579 -3.431423,2.87199 -1.432387,1.25667 -1.774843,-2.53596 -2.968191,-2.80825 -1.938697,1.49579 -2.854591,-1.13898 -3.825129,-2.6554 -1.48301,-1.18343 -1.6867,-3.37865 -3.01867,-4.79103 -0.283009,-0.45828 -0.416767,-1.03838 -0.6245,-1.53756 z m -0.584403,3.04644 c -1.916286,1.82238 -3.125083,4.51208 -4.174236,7.15205 -0.48378,0.77917 -1.139657,2.70984 -0.164938,0.79323 0.792225,-0.41686 2.918922,-4.001 1.980634,-1.20965 -0.994751,1.77334 -1.740626,3.8425 -2.002861,6.08106 -1.136652,3.35038 -3.598821,5.62819 -5.742132,7.9107 -1.583271,1.71542 2.100374,-1.03722 2.568655,-1.76997 0.885453,-0.49976 3.375049,-4.69414 2.563497,-1.35113 -0.112578,0.87797 -1.786897,4.99852 -0.361197,2.34838 0.842809,-2.06341 1.681217,-4.1911 2.161188,-6.40483 -0.311142,-2.83242 1.55994,-4.98666 1.78838,-7.62211 0.468861,-1.48348 2.150333,-1.18119 1.301153,-3.17354 -0.19649,-0.91288 0.104348,-1.91896 0.08186,-2.75419 z m -10.510367,6.522 c -1.566828,1.08352 -1.825468,3.59413 -3.069656,5.09993 -1.337483,1.68322 -1.608738,4.19564 -3.036783,5.84963 -0.468317,1.33925 1.721493,-1.8054 1.968487,-2.69465 0.563574,-1.35728 1.950415,-2.96287 2.530067,-3.74504 -0.200933,3.01066 0.601051,-3.19532 1.445402,-3.92884 0.0012,-0.19073 0.301669,-0.42575 0.162483,-0.58103 z m 9.61535,0.50613 c -0.269075,1.82522 -0.900425,3.30645 -1.600466,4.98182 -0.0019,2.01198 -0.566732,4.41732 -1.06924,6.04249 1.104064,-1.94788 2.988481,-5.55011 3.902752,-1.69812 1.067321,1.19397 2.176443,2.09201 3.537594,2.64974 0.634179,0.23047 3.771995,2.08781 2.011565,0.94835 -1.417185,-0.63494 -2.152236,-2.42682 -3.393854,-3.27654 -1.482242,-0.97794 -2.333456,-2.91033 -2.689685,-4.93545 -0.580192,-1.41432 -0.6235,-3.10858 -0.698666,-4.71229 z m 0.469734,0.77184 c 0.609501,1.70123 0.58534,3.73247 1.330812,5.44015 1.197339,1.26621 2.108635,3.42289 3.873864,3.21569 1.801041,0.43403 3.272463,1.85227 4.665881,3.17136 -0.53111,-0.98749 -1.643373,-1.93319 -2.432772,-2.81818 -0.779118,-1.71942 -2.958418,-1.24638 -3.742626,-2.0397 1.607934,-0.50347 2.399004,-3.59961 4.407153,-2.53852 0.984,0.10887 3.535801,2.50644 1.620169,0.50987 -1.140513,-1.0195 -1.749185,-3.60834 -2.199937,-4.42187 -1.616312,1.64067 -2.842008,3.59105 -4.083279,5.62391 -2.422277,-0.108 -2.04628,-4.18914 -3.334967,-5.86829 l -0.104528,-0.27334 z m -5.341421,2.31543 c -1.239908,0.96252 -2.106649,2.69527 -3.480556,3.28944 -1.684161,0.35207 -2.405212,3.03667 -4.136274,3.57445 -1.222665,1.25423 -2.290078,2.79007 -3.621256,3.87704 0.54969,-0.10362 2.071842,-1.56587 2.859351,-2.39715 1.208845,-1.19995 2.788761,-1.47884 3.773343,-3.1071 3.172491,-1.91605 -1.158088,5.93749 -0.121571,4.59788 1.069858,-1.77898 1.844504,-3.75917 2.566678,-5.76248 0.57707,-1.4559 1.584951,-2.70325 2.160285,-4.07208 z m -10.342808,2.57275 c -1.461094,1.47044 -2.365795,3.76314 -4.085458,4.90402 -0.949997,0.42021 -1.916667,1.78957 -0.45285,0.78771 0.898774,-0.58044 2.593421,-2.20374 2.810214,-1.3987 0.741402,-1.44092 1.705659,-2.7228 1.728094,-4.29303 z m -5.831602,6.11022 c -1.237614,0.44961 -0.364011,0.80354 0,0 z"
         id="path893-6" />
      <path
         id="path932-2"
         style="fill:#ffffff;stroke-width:0.07938239"
         d="m 84.726837,280.57033 c 0.343249,-0.21419 0.850414,-1.19733 0.800221,-1.5513 -0.03202,-0.22579 -0.226185,-0.2327 -1.114807,-0.0395 -0.837078,0.18187 -1.418907,0.1671 -2.296324,-0.0584 -1.005366,-0.2585 -1.215593,-0.35809 -1.845305,-0.87424 -0.634565,-0.52019 -0.845262,-0.56673 -0.845262,-0.18664 0,0.21206 0.08894,0.34183 0.512417,0.74695 0.530196,0.50724 1.687973,1.32312 2.362085,1.66478 0.438554,0.22229 1.750552,0.51043 2.04949,0.45015 0.109201,-0.022 0.279079,-0.0903 0.377485,-0.15169 z m -10.582855,-0.0699 c 1.211461,-0.32554 2.591451,-1.26348 2.940103,-1.99819 0.131761,-0.27757 0.131441,-0.29504 -0.007,-0.39598 -0.233498,-0.17075 -0.393682,-0.12929 -1.289447,0.33332 -0.5183,0.26764 -1.035791,0.47262 -1.326385,0.52543 -0.527024,0.0959 -1.873739,0.0392 -2.382575,-0.10006 -0.645758,-0.17694 -0.767745,-0.14589 -1.043883,0.26542 -0.138515,0.20633 -0.315146,0.54084 -0.392492,0.74336 l -0.140576,0.36827 0.19283,0.14628 c 0.106029,0.0804 0.317917,0.18251 0.470798,0.22683 0.403047,0.11674 2.403464,0.0397 2.978221,-0.11468 z m 10.540515,-2.82094 c 0.319588,-0.0887 0.552927,-0.34293 0.482794,-0.52576 -0.154071,-0.40138 -3.285572,-1.41287 -3.898137,-1.25911 -0.509866,0.12794 -0.535678,0.35739 -0.09634,0.85646 0.380186,0.43188 0.869803,0.73272 1.443919,0.88727 0.499392,0.13437 1.649624,0.15725 2.067768,0.0411 z m -10.369526,-0.10135 c 0.763704,-0.19807 1.694175,-1.08169 1.587356,-1.50738 -0.09294,-0.36985 -0.788956,-0.48762 -1.419218,-0.24 -0.833666,0.32744 -2.126055,1.26634 -2.126055,1.54447 0,0.0855 0.07954,0.18599 0.178692,0.22586 0.270816,0.10881 1.323444,0.0954 1.779225,-0.0229 z m 4.426832,-0.94485 c 0.118255,-0.59103 0.004,-1.26856 -0.246594,-1.45837 -0.199503,-0.15137 -0.417984,-0.13756 -0.717793,0.0452 -0.252077,0.15367 -0.25812,0.17051 -0.25812,0.71969 0,0.84677 0.144868,1.01625 0.822792,0.96233 0.319418,-0.0254 0.355955,-0.05 0.399715,-0.26884 z m 1.975946,-1.93766 c 1.254191,-0.37082 1.456785,-0.47978 1.992704,-1.072 0.909751,-1.0053 1.020623,-2.19769 0.274006,-2.9444 -0.354294,-0.3542 -1.031497,-0.58468 -1.481016,-0.50399 -0.404007,0.0726 -1.362672,1.06842 -1.839823,1.91123 -0.34611,0.61128 -0.357386,0.6525 -0.357386,1.30707 0,0.68778 0.205055,1.58919 0.361438,1.58919 0.04342,0 0.515989,-0.12922 1.050077,-0.2871 z m -0.531467,-0.87624 c -0.08104,-0.21126 0.17162,-0.89966 0.49478,-1.34759 0.650441,-0.90187 0.77624,-1.05388 0.932852,-1.12759 0.245724,-0.11555 0.622408,0.0743 0.747737,0.37693 0.236189,0.57022 -0.274317,1.30112 -1.305495,1.86912 -0.64607,0.35596 -0.805073,0.39782 -0.869874,0.22913 z m -3.161995,0.51447 c 0.543462,-0.16575 0.659336,-1.04199 0.230307,-1.74206 -1.22909,-2.00589 -1.42462,-2.26829 -1.948473,-2.61527 -0.534248,-0.3539 -1.284206,-0.28043 -1.59505,0.15613 -0.430289,0.60438 -0.535918,2.31324 -0.184416,2.9837 0.327532,0.62455 1.108855,1.14769 1.941801,1.3001 0.398845,0.073 1.181918,0.0314 1.555831,-0.0826 z m -0.990129,-0.17234 c -0.03492,-0.0586 -0.336176,-0.30703 -0.6695,-0.55197 -0.976933,-0.71842 -1.340121,-1.24012 -1.338211,-1.92273 0.002,-0.54807 0.202755,-0.75425 0.736772,-0.75465 0.547754,-7.9e-4 2.041306,1.97429 2.041306,2.69891 0,0.44713 -0.58134,0.84732 -0.770367,0.53036 z m -7.512732,3.47585 c 2.059598,0.013 6.202783,-2.93084 1.822463,-2.72037 -2.809617,-0.89953 -6.952871,-2.29972 -8.836467,0.4033 1.989016,1.43 4.500151,2.70248 7.014004,2.31707 z m 25.538347,-0.0381 c 2.219514,-0.23229 8.622337,-3.72669 3.036357,-3.88725 -3.585357,-1.77837 -6.980686,0.98501 -10.474148,1.65554 -1.876162,1.19221 3.64448,1.96102 4.795676,2.27571 0.875018,0.12974 1.774888,0.15364 2.642115,-0.044 z m -9.035358,-3.37562 c 3.013508,-1.43853 8.035308,-0.95877 8.34886,-5.28511 0.55928,-2.41923 -4.580759,0.48292 -5.741248,1.30286 -0.502956,0.18288 -6.10072,5.61805 -2.607612,3.98225 z m 18.361965,-1.8025 c 2.18502,-0.25864 6.24742,-4.27836 4.9236,-5.32662 -3.67039,0.63466 -7.28404,1.62253 -10.382004,3.75873 -4.450508,1.88349 3.600974,2.42025 5.458404,1.5679 z m -8.424789,-1.65867 c 3.181412,-1.89141 7.172859,-3.81126 7.243199,-8.08326 1.21847,-4.00834 -4.060383,0.89576 -5.046015,1.93579 -0.636738,1.15258 -3.992078,6.10073 -2.197184,6.14747 z m 11.170299,-4.83534 c 3.8999,-0.99115 7.42951,-3.66344 8.56992,-7.64634 1.03609,-1.73071 1.05189,-4.19166 -1.47916,-2.27836 -3.95301,1.32051 -4.83129,6.03985 -7.84813,8.54216 -2.1232,2.08002 -2.42269,2.53208 0.75737,1.38254 z m -1.98738,-2.63909 c 1.9083,-2.88147 5.45518,-5.53081 4.86878,-9.35162 -1.44382,-3.08394 -5.12787,4.2918 -5.1465,6.72969 0.0225,0.46636 -1.10359,4.23374 0.27772,2.62193 z m 8.29096,-8.56529 c 4.2335,-1.18247 6.31876,-6.02507 6.10161,-10.11321 -3.09151,1.22882 -5.02258,4.31619 -5.94155,7.46077 0.0645,0.57853 -2.08547,3.47652 -0.16006,2.65244 z m -1.62118,-2.19579 c 1.63273,-3.00571 3.42754,-7.1162 0.57649,-10.0178 -2.22016,2.70451 -2.54372,7.12055 -0.75367,10.15678 z m 4.90016,-8.13491 c 3.51853,-3.3211 4.14375,-8.80206 2.43708,-13.1922 -1.27242,-4.03845 -3.58838,3.08423 -3.17886,4.87761 0.5905,2.52643 -0.1026,6.97201 0.74178,8.31459 z m -1.84459,-1.15715 c 0.31425,-3.42466 0.0202,-7.15291 -2.15102,-9.96798 -1.59215,3.30652 -0.44615,7.64164 1.98707,10.26581 l 0.16391,-0.29783 z m -0.5325,-10.49905 c -0.16803,-2.92103 -1.59335,-5.48573 -2.83083,-8.06764 -1.60317,-1.02287 -4.47682,-1.87083 -2.65523,1.15344 0.99786,2.50662 3.81559,6.03439 5.48606,6.9142 z m 1.92131,-2.63291 c 1.79516,-3.4835 0.47749,-7.88441 -2.00605,-10.59126 -1.13853,2.0015 -1.85065,4.65905 -0.57192,6.7523 0.96785,0.66968 1.16501,7.40569 2.57797,3.83896 z m -5.81286,-7.4473 c -1.61542,-2.4882 -3.89026,-6.1704 -7.30656,-5.43466 1.49569,2.62998 4.48248,4.96523 7.30656,5.43466 z m 1.48506,-0.70508 c 1.12545,-3.72749 -1.03903,-7.67325 -4.38941,-9.03859 -0.82704,3.67577 1.77422,6.55166 3.96858,9.14396 l 0.20971,0.19249 0.21109,-0.29783 z m -6.2502,-5.8493 c -1.49137,-2.30589 -5.087891,-5.05374 -7.58275,-3.75782 1.782581,2.26087 4.95451,3.30047 7.58275,3.75782 z m 0.32609,-1.93378 c 0.88855,-2.60126 -3.93311,-6.95706 -4.85415,-5.27554 0.663,2.1766 3.01295,4.55162 4.85415,5.27554 z m -5.825873,-3.485 c 0.79735,-3.21344 -7.397855,-4.26764 -3.035841,-0.75214 0.895755,0.52794 1.980846,0.95224 3.035841,0.75214 z m -26.922629,63.10896 c -1.109745,-3.42049 -3.988879,-6.08135 -7.678314,-6.2475 -2.10863,0.44819 1.67943,5.23929 3.612088,5.35062 1.296539,0.26025 2.785546,1.24515 4.066226,0.89688 z m -10.757257,-0.75009 c 3.817227,-1.19079 -3.077001,-3.16218 -4.09989,-4.54702 -1.700946,-2.00172 -9.28507,-2.60915 -4.738209,0.98678 2.060945,2.70119 5.39537,4.4737 8.838099,3.56024 z m 1.521515,-2.84369 c -1.638608,-3.7993 -3.24613,-7.98571 -7.256693,-9.86703 -0.377763,2.24385 0.824911,6.30328 3.442672,7.62911 1.133613,0.70409 2.749767,2.27633 3.814021,2.23792 z m -8.709507,-4.44133 c -2.628496,-2.80946 -5.162667,-5.71736 -7.722704,-8.5843 -4.995426,-2.50691 -1.289865,4.76253 0.274869,6.32038 1.949973,1.77246 4.992123,2.31749 7.447835,2.26392 z m 0.174721,-2.47535 c -0.900406,-3.40455 -0.820082,-7.35509 -3.601427,-9.92274 -2.912138,-3.25945 -2.493013,4.70436 -0.719517,5.87829 1.154964,1.32681 3.064676,3.78615 4.320944,4.04445 z m -7.40187,-7.21602 c 8.43e-4,-3.17057 -2.57683,-5.76519 -3.287394,-8.83825 -1.286505,-1.49787 -4.756946,-5.94717 -3.860225,-1.26153 0.672345,3.27785 0.904606,8.05742 4.463335,9.48062 0.872867,0.16238 1.79365,0.84537 2.684284,0.61916 z m 0.796019,-4.1734 c 1.383259,-3.6465 0.830903,-7.94188 -1.174294,-11.25584 -2.714759,2.68773 -1.574573,7.09783 -0.145141,10.20781 0.279447,0.31896 0.914443,2.71961 1.319435,1.04803 z m -4.361862,-7.43603 c 0.240378,-3.74419 -0.150549,-7.5049 -0.07173,-11.25744 -1.014363,-1.60837 -2.926908,-4.67005 -3.253509,-0.82536 -1.121963,4.24746 -0.513225,9.32614 3.146289,12.1924 l 0.178703,-0.1096 z m 2.305379,-5.41369 c 0.855312,-1.7134 3.048316,-7.28923 0.980519,-7.54346 -2.292313,1.96302 -2.192101,6.62488 -1.519548,8.47472 l 0.240494,-0.36648 0.298585,-0.56468 z m -1.751112,-7.75958 c 0.107263,-3.50304 2.756829,-6.81823 1.441575,-10.30322 -1.130021,-3.36547 -3.843082,3.2027 -3.590797,4.91176 -0.238345,1.80856 0.75078,4.79882 2.149222,5.39146 z m 3.012216,-1.59394 c 1.583295,-1.10806 4.843525,-5.97768 2.327849,-6.36585 -2.682354,1.17918 -4.588745,6.38957 -3.748635,7.83164 0.49317,-0.46939 0.954107,-0.97066 1.420786,-1.46579 z m 1.910986,-7.39305 c 2.258771,-0.87002 8.012624,-4.21055 5.948874,-6.10475 -3.199275,0.73137 -5.891722,3.21449 -6.609158,6.37411 l 0.660204,-0.26936 z m -0.333085,-3.3337 c 1.471615,-1.35043 2.59836,-7.63881 -0.492638,-4.40463 -2.266068,0.9444 -2.031587,6.75172 -0.664295,6.64098 0.400068,-0.73788 0.779404,-1.48685 1.156933,-2.23635 z m 6.229157,-3.96406 c 1.641302,0.1311 7.051352,-4.08038 2.888361,-2.99685 -1.184775,-0.0904 -7.764932,5.04025 -2.888361,2.99685 z m -1.978646,-1.10003 c 2.47655,-0.48114 3.971798,-7.6459 0.861041,-3.769 -0.729664,0.59891 -3.283425,6.17953 -0.861041,3.769 z m 5.106977,-3.43734 c 2.227959,0.21853 5.639186,-4.29742 1.406314,-2.66871 -1.574168,-0.50922 -4.479687,4.35284 -1.406314,2.66871 z" />
    </g>
  </g>
</svg>
