<?xml version="1.0" encoding="UTF-8" standalone="no"?>
<svg
   xmlns:dc="http://purl.org/dc/elements/1.1/"
   xmlns:cc="http://creativecommons.org/ns#"
   xmlns:rdf="http://www.w3.org/1999/02/22-rdf-syntax-ns#"
   xmlns:svg="http://www.w3.org/2000/svg"
   xmlns="http://www.w3.org/2000/svg"
   xmlns:xlink="http://www.w3.org/1999/xlink"
   xmlns:sodipodi="http://sodipodi.sourceforge.net/DTD/sodipodi-0.dtd"
   xmlns:inkscape="http://www.inkscape.org/namespaces/inkscape"
   version="1.1"
   width="600"
   height="400"
   id="svg39"
   sodipodi:docname="league-flag.svgz"
   inkscape:version="0.92.4 (unknown)">
  <metadata
     id="metadata43">
    <rdf:RDF>
      <cc:Work
         rdf:about="">
        <dc:format>image/svg+xml</dc:format>
        <dc:type
           rdf:resource="http://purl.org/dc/dcmitype/StillImage" />
        <dc:title></dc:title>
      </cc:Work>
    </rdf:RDF>
  </metadata>
  <sodipodi:namedview
     pagecolor="#ffffff"
     bordercolor="#666666"
     borderopacity="1"
     objecttolerance="10"
     gridtolerance="10"
     guidetolerance="10"
     inkscape:pageopacity="0"
     inkscape:pageshadow="2"
     inkscape:window-width="1029"
     inkscape:window-height="970"
     id="namedview41"
     showgrid="false"
     fit-margin-top="0"
     fit-margin-left="0"
     fit-margin-right="0"
     fit-margin-bottom="0"
     inkscape:zoom="0.54648006"
     inkscape:cx="168.91997"
     inkscape:cy="364.95537"
     inkscape:window-x="71"
     inkscape:window-y="25"
     inkscape:window-maximized="0"
     inkscape:current-layer="svg39" />
  <desc
     id="desc2">European flag</desc>
  <defs
     id="defs16">
    <g
       id="s">
      <g
         id="c">
        <path
           id="t"
           d="M 0,0 V 1 H 0.5 Z"
           transform="rotate(18,3.1568758,-0.5)"
           inkscape:connector-curvature="0" />
        <use
           xlink:href="#t"
           transform="scale(-1,1)"
           id="use5"
           x="0"
           y="0"
           width="100%"
           height="100%" />
      </g>
      <g
         id="a">
        <use
           xlink:href="#c"
           transform="rotate(72)"
           id="use8"
           x="0"
           y="0"
           width="100%"
           height="100%" />
        <use
           xlink:href="#c"
           transform="rotate(144)"
           id="use10"
           x="0"
           y="0"
           width="100%"
           height="100%" />
      </g>
      <use
         xlink:href="#a"
         transform="scale(-1,1)"
         id="use13"
         x="0"
         y="0"
         width="100%"
         height="100%" />
    </g>
  </defs>
  <rect
     style="fill:#ffcc00;fill-opacity:1;stroke-width:1.35000002"
     y="0"
     x="0"
     width="600"
     height="400"
     id="rect18" />
  <g
     style="fill:#000000;stroke-width:1.82249999"
     transform="matrix(22.222222,0,0,22.222222,300,200)"
     id="g37">
    <use
       style="fill:#000000;stroke-width:1.35000002"
       height="100%"
       width="100%"
       x="0"
       xlink:href="#s"
       y="-6"
       id="use20" />
    <use
       style="fill:#000000;stroke-width:1.35000002"
       height="100%"
       width="100%"
       x="0"
       xlink:href="#s"
       y="6"
       id="use22" />
    <g
       style="fill:#000000;stroke-width:1.35000002"
       id="l">
      <use
         style="fill:#000000;stroke-width:1.35000002"
         height="100%"
         width="100%"
         y="0"
         xlink:href="#s"
         x="-6"
         id="use24" />
      <use
         style="fill:#000000;stroke-width:1.35000002"
         height="100%"
         width="100%"
         y="0"
         x="0"
         xlink:href="#s"
         transform="rotate(-144,-2.3441661,-2.1106967)"
         id="use26" />
      <use
         style="fill:#000000;stroke-width:1.35000002"
         height="100%"
         width="100%"
         y="0"
         x="0"
         xlink:href="#s"
         transform="rotate(144,-2.1106967,-2.3441661)"
         id="use28" />
      <use
         style="fill:#000000;stroke-width:1.35000002"
         height="100%"
         width="100%"
         y="0"
         x="0"
         xlink:href="#s"
         transform="rotate(72,-4.6626491,-2.0759451)"
         id="use30" />
      <use
         style="fill:#000000;stroke-width:1.35000002"
         height="100%"
         width="100%"
         y="0"
         x="0"
         xlink:href="#s"
         transform="rotate(72,-5.0759451,0.53350333)"
         id="use32" />
    </g>
    <use
       style="fill:#000000;stroke-width:1.35000002"
       height="100%"
       width="100%"
       y="0"
       x="0"
       xlink:href="#l"
       transform="scale(-1,1)"
       id="use35" />
  </g>
  <path
     d="m 300.14975,128.46358 c -4.38331,0 -8.2162,3.97578 -8.2162,9.09002 0,5.11423 3.86377,8.72309 8.2162,8.72309 4.35242,0 7.86628,-3.63363 7.86628,-8.72309 0,-5.08948 -3.483,-9.09002 -7.86628,-9.09002 z m 0,-2.67227 c 5.89267,0 10.54069,5.33181 10.54069,11.76229 0,6.4305 -4.62776,11.3975 -10.54069,11.3975 -5.91305,0 -10.89061,-4.98502 -10.89061,-11.3975 0,-6.41248 4.99782,-11.76231 10.89061,-11.76229 z M 297.4579,119 v 6.10611 c 1.93959,-0.46713 3.95049,-0.42109 5.73493,0.10244 v -6.20853 z m 0,11.0975 v 6.56764 c 1.94982,-0.0586 3.9277,-0.0401 5.73493,0.01 v -6.35916 c -1.90769,-0.96247 -3.92326,-1.03955 -5.73493,-0.21811 z m -4.4889,7.65341 c 0.0974,4.49035 3.4485,7.49675 7.18102,7.49675 3.73346,0 6.74561,-2.98383 6.83154,-7.49916 -4.80653,-0.26595 -9.53985,-0.23295 -14.01256,0.002 z m 18.72681,0.32297 c -0.24888,6.67944 -5.21923,11.9061 -11.54579,11.9061 -6.32668,0 -11.6404,-5.20603 -11.90611,-11.90128 -13.50598,1.11969 -25.05826,3.65885 -25.57641,3.77788 v 7.1244 c 0.79629,0.11472 22.91939,3.60075 37.33068,3.60075 14.4113,0 36.53439,-3.48603 37.33069,-3.60075 v -7.1244 c -0.51889,-0.1192 -12.10221,-2.6655 -25.63306,-3.7827 z m -16.43115,15.31162 v 79.64074 c 0,13.9222 -4.13497,12.18335 -5.60719,11.92537 -16.87891,-2.95754 -22.56465,-6.60931 -35.39414,-18.23755 l 11.60844,-4.08156 c -15.24724,-3.23558 -21.31934,-9.22929 -32.35977,-17.80131 -0.73292,16.45898 3.33079,25.39717 14.21261,36.89085 v -9.62733 c 12.45154,14.27082 23.34661,14.87139 35.2652,22.6469 5.46185,3.56323 17.01078,14.25839 17.01078,14.25839 0,0 11.54894,-10.69516 17.01077,-14.25839 11.91862,-7.77551 22.81367,-8.37608 35.26521,-22.6469 v 9.62733 c 10.88184,-11.49368 14.94432,-20.43187 14.21141,-36.89085 -11.04043,8.57202 -17.11254,14.56573 -32.35979,17.80131 l 11.60846,4.08156 c -12.82949,11.62824 -18.51401,15.28001 -35.39294,18.23755 -1.47222,0.25798 -5.6072,1.99683 -5.6072,-11.92537 V 153.3855 c -3.2389,0.16839 -6.49138,0.13139 -9.47185,0 z"
     style="color:#000000;font-style:normal;font-variant:normal;font-weight:normal;font-stretch:normal;font-size:12px;line-height:normal;font-family:Dialog;font-variant-ligatures:normal;font-variant-position:normal;font-variant-caps:normal;font-variant-numeric:normal;font-variant-alternates:normal;font-feature-settings:normal;text-indent:0;text-align:start;text-decoration:none;text-decoration-line:none;text-decoration-style:solid;text-decoration-color:#000000;letter-spacing:normal;word-spacing:normal;text-transform:none;writing-mode:lr-tb;direction:ltr;text-orientation:mixed;dominant-baseline:auto;baseline-shift:baseline;text-anchor:start;white-space:normal;shape-padding:0;clip-rule:nonzero;display:inline;overflow:visible;visibility:visible;opacity:1;isolation:auto;mix-blend-mode:normal;color-interpolation:auto;color-interpolation-filters:linearRGB;solid-color:#000000;solid-opacity:1;vector-effect:none;fill:#000000;fill-opacity:1;fill-rule:evenodd;stroke:none;stroke-width:1.66262853;stroke-linecap:square;stroke-linejoin:miter;stroke-miterlimit:10;stroke-dasharray:none;stroke-dashoffset:0;stroke-opacity:1;color-rendering:auto;image-rendering:auto;shape-rendering:auto;text-rendering:auto;enable-background:accumulate"
     id="path444"
     inkscape:connector-curvature="0" />
</svg>
